<svg xmlns="http://www.w3.org/2000/svg" width="32" height="32" viewBox="0 0 32 32">
  <rect width="32" height="32" rx="8" fill="#050510"/>
  <path d="M22 19.92v2a1.33 1.33 0 0 1-1.45 1.33 13.2 13.2 0 0 1-5.75-2.04 13 13 0 0 1-4-4 13.2 13.2 0 0 1-2.05-5.78A1.33 1.33 0 0 1 10.07 10h2a1.33 1.33 0 0 1 1.33 1.15c.08.64.24 1.27.47 1.87a1.33 1.33 0 0 1-.3 1.4l-.85.86a10.67 10.67 0 0 0 4 4l.85-.85a1.33 1.33 0 0 1 1.4-.3c.6.23 1.23.39 1.87.47A1.33 1.33 0 0 1 22 19.92z" fill="none" stroke="#10b981" stroke-width="1.5" stroke-linecap="round" stroke-linejoin="round"/>
  <path d="M17 10l4 0 0 4" fill="none" stroke="#10b981" stroke-width="1.5" stroke-linecap="round" stroke-linejoin="round"/>
  <path d="M21 10l-4 4" fill="none" stroke="#10b981" stroke-width="1.5" stroke-linecap="round" stroke-linejoin="round"/>
</svg>
